<svg xmlns="http://www.w3.org/2000/svg" viewBox="10 12 80 80">
	<path d="M85.3,55.08a35.06,35.06,0,0,0,0-10.16l-7-2.48a29.15,29.15,0,0,0-2.95-7.12l3.18-6.69a36.13,36.13,0,0,0-7.17-7.18l-6.7,3.18a29.15,29.15,0,0,0-7.12-2.95l-2.48-7a35.06,35.06,0,0,0-10.16,0l-2.48,7a29.15,29.15,0,0,0-7.12,2.95l-6.69-3.18a35.92,35.92,0,0,0-7.18,7.18l3.18,6.69a29.15,29.15,0,0,0-2.95,7.12l-7,2.48a35.06,35.06,0,0,0,0,10.16l7,2.48a29.15,29.15,0,0,0,2.95,7.12l-3.18,6.69a35.92,35.92,0,0,0,7.18,7.18l6.69-3.18a29.15,29.15,0,0,0,7.12,2.95l2.48,7a35.06,35.06,0,0,0,10.16,0l2.48-7a29.15,29.15,0,0,0,7.12-2.95l6.7,3.18a36.13,36.13,0,0,0,7.17-7.18l-3.18-6.69a29.15,29.15,0,0,0,2.95-7.12ZM67,50A17,17,0,1,1,50,33,17,17,0,0,1,67,50Z"/>
</svg>
